<svg width="108" height="80" viewBox="0 0 108 80" fill="none" xmlns="http://www.w3.org/2000/svg">
<path d="M105.749 12.4909C104.512 7.58182 100.853 3.70909 96.1966 2.38182C87.7779 8.66977e-07 54 0 54 0C54 0 20.2393 8.66977e-07 11.8034 2.38182C7.16449 3.69091 3.50493 7.56364 2.25072 12.4909C0 21.4 0 40 0 40C0 40 0 58.6 2.25072 67.5091C3.48775 72.4182 7.14731 76.2909 11.8034 77.6182C20.2393 80 54 80 54 80C54 80 87.7779 80 96.1966 77.6182C100.836 76.3091 104.495 72.4364 105.749 67.5091C108 58.6 108 40 108 40C108 40 108 21.4 105.749 12.4909Z" fill="#EA333D"/>
</svg>
